<svg width="112" height="140" viewBox="0 0 112 140" fill="none" xmlns="http://www.w3.org/2000/svg">
<g clip-path="url(#clip0_386_364)">
<path d="M55.9995 1.95873C59.9187 1.95815 63.7415 3.18025 66.941 5.4565C70.1404 7.73276 72.5587 10.9511 73.8626 14.6677C75.1666 18.3843 75.2918 22.4161 74.2211 26.2073C73.1504 29.9985 70.9364 33.3623 67.8845 35.8349L65.7224 37.588L68.0987 39.0342C78.6949 45.4816 85.5415 59.7379 85.5415 75.362C85.5491 79.4393 85.0795 83.5033 84.1423 87.4702L83.7235 89.2396L85.4474 89.7946C92.9887 92.2136 99.2574 95.5467 103.575 99.425C107.795 103.235 110.068 107.501 110.068 111.762C110.068 115.098 108.74 118.372 106.127 121.49C103.513 124.608 99.634 127.503 94.7417 129.978C84.428 135.178 70.6763 138.041 56.0157 138.041C41.3551 138.041 27.6034 135.178 17.2897 129.978C12.3844 127.503 8.55368 124.65 5.90463 121.49C3.25559 118.33 1.96353 115.098 1.96353 111.762C1.96353 107.501 4.20353 103.235 8.45628 99.425C12.774 95.5467 19.0427 92.2136 26.5841 89.7946L28.3079 89.2396L27.8859 87.4702C26.9513 83.5029 26.4828 79.4391 26.4899 75.362C26.4899 59.7379 33.3365 45.4816 43.9327 39.0342L46.309 37.588L44.1437 35.8349C41.0916 33.3621 38.8775 29.998 37.8069 26.2065C36.7362 22.415 36.8617 18.3829 38.1661 14.6661C39.4704 10.9494 41.8893 7.73109 45.0892 5.45509C48.2892 3.17908 52.1125 1.95748 56.032 1.95873M56.032 3.28714e-07C51.7097 -0.000768418 47.4937 1.34685 43.9652 3.85705C40.4367 6.36725 37.7694 9.91639 36.3313 14.0151C34.8931 18.1139 34.7548 22.5603 35.9354 26.7414C37.116 30.9226 39.5575 34.6324 42.9231 37.3594C32.0445 43.9571 24.5096 58.4908 24.5096 75.362C24.502 79.5931 24.9891 83.8105 25.9608 87.9272C10.3522 92.9383 -0.0102539 101.74 -0.0102539 111.758C-0.0102539 127.353 25.0615 139.997 55.9897 139.997C86.918 139.997 111.99 127.353 111.99 111.758C111.99 101.736 101.637 92.9351 86.0187 87.9272C86.9904 83.8105 87.4775 79.5931 87.4699 75.362C87.4699 58.4908 79.935 43.9571 69.0889 37.3594C72.4526 34.6315 74.8922 30.9217 76.0717 26.7412C77.2512 22.5606 77.1124 18.1152 75.6746 14.0173C74.2367 9.91942 71.5704 6.37078 68.0432 3.86032C64.516 1.34986 60.3013 0.00114546 55.98 3.28714e-07H56.032Z" fill="#F5F5F5"/>
<path d="M34.8434 67.0474C33.0456 73.926 33.3855 81.1933 35.8173 87.8719C37.0614 91.3146 38.7827 94.5633 40.9303 97.5219C42.0527 99.0736 43.2783 100.547 44.5987 101.932C45.8518 103.238 47.1958 104.482 48.4944 105.752C51.1402 108.334 54.0132 111.223 54.5197 115.013L54.7696 114.06C54.8923 113.953 55.0331 113.869 55.1852 113.812H55.1559C55.0423 113.851 55.5228 113.776 55.3053 113.792L54.9157 113.822C54.4464 113.848 53.9761 113.848 53.5068 113.822C53.1821 113.822 52.8575 113.776 52.5329 113.737L52.2667 113.704C52.0752 113.681 52.3998 113.724 52.3576 113.704L52.1888 113.681C51.994 113.652 51.7959 113.619 51.6012 113.583C50.6746 113.416 49.7603 113.186 48.8645 112.895C48.3407 112.729 47.8267 112.543 47.3224 112.336C47.2348 112.3 46.8193 112.118 47.1049 112.248L46.6797 112.059C46.4037 111.935 46.131 111.808 45.8616 111.674C44.6483 111.066 43.4837 110.364 42.3782 109.575C42.0763 109.362 41.7841 109.14 41.4919 108.922L41.3913 108.843L41.1738 108.661L40.6933 108.266C40.0636 107.73 39.45 107.172 38.8624 106.588C38.2261 105.956 37.6147 105.303 37.0282 104.629C36.3789 103.881 35.8108 103.163 35.3011 102.468C32.5051 98.5815 30.2426 94.3342 28.5746 89.8404C28.3182 89.1712 28.0714 88.5019 27.8344 87.8262C27.7597 87.5798 27.5938 87.3717 27.3709 87.2447C27.148 87.1178 26.8851 87.0817 26.6365 87.1439C26.3878 87.2133 26.1766 87.3791 26.0493 87.605C25.9221 87.8309 25.8893 88.0983 25.958 88.3485C27.4013 92.5785 29.2929 96.6402 31.6002 100.463C33.3625 103.378 35.4888 106.054 37.9274 108.425C39.8024 110.232 41.9096 111.778 44.1929 113.022C45.9372 113.969 47.7907 114.696 49.7118 115.186C51.046 115.525 52.4111 115.726 53.786 115.787C54.4221 115.845 55.0631 115.817 55.6916 115.702C56.698 115.451 56.3831 114.217 56.2013 113.479C55.9406 112.466 55.5465 111.492 55.0294 110.583C53.9613 108.654 52.4615 106.992 50.9227 105.419C49.332 103.803 47.6406 102.285 46.0693 100.646C44.4887 99.0093 43.0537 97.2364 41.7809 95.3477C39.2987 91.6795 37.5043 87.586 36.486 83.2689C35.5214 79.1435 35.3703 74.8679 36.0413 70.6841C36.2166 69.6394 36.4438 68.6045 36.7165 67.5795C37.0412 66.3618 35.1615 65.8395 34.8369 67.0572L34.8434 67.0474Z" fill="#F5F5F5"/>
<path d="M28.9935 98.2499C28.7565 101.384 28.5552 104.528 28.9935 107.652C29.3608 110.551 30.4805 113.301 32.2399 115.627C35.6843 120.109 41.0538 122.767 46.2934 124.513C52.316 126.517 58.6885 127.233 65.0023 126.616C71.5795 125.963 77.8807 123.912 84.2923 122.427C90.2883 121.036 96.6642 120.142 102.728 121.637C103.492 121.826 104.25 122.054 105.001 122.319C105.25 122.389 105.517 122.355 105.742 122.227C105.966 122.099 106.132 121.886 106.2 121.635C106.269 121.385 106.236 121.117 106.109 120.891C105.981 120.664 105.77 120.498 105.52 120.429C99.5535 118.32 93.0737 118.702 86.9543 119.864C80.6466 121.063 74.5369 123.152 68.2032 124.223C62.1112 125.271 55.8687 125.031 49.8742 123.517C47.0158 122.805 44.2416 121.786 41.5992 120.478C39.2714 119.364 37.1337 117.887 35.2655 116.1C33.3682 114.26 32.0047 111.935 31.3211 109.375C30.568 106.49 30.6264 103.457 30.805 100.502C30.8537 99.7516 30.9088 99.0007 30.964 98.2499C30.964 97.9901 30.8614 97.741 30.6788 97.5574C30.4961 97.3737 30.2484 97.2705 29.9901 97.2705C29.7336 97.2763 29.4893 97.3814 29.3079 97.5638C29.1265 97.7462 29.022 97.992 29.0162 98.2499H28.9935Z" fill="#F5F5F5"/>
<path d="M74.7509 67.5924C75.9071 71.6689 76.199 75.9442 75.6079 80.1414C74.9584 84.5081 73.4698 88.706 71.2253 92.5009C70.0609 94.486 68.7201 96.361 67.2193 98.1029C65.6629 99.8557 64.0009 101.511 62.2426 103.058C60.509 104.558 58.8677 106.161 57.3276 107.861C55.9187 109.493 54.6656 111.321 54.0812 113.41C53.88 114.155 53.5131 115.457 54.5552 115.712C54.6957 115.739 54.8378 115.757 54.9805 115.767C55.2727 115.797 55.5648 115.803 55.8602 115.807C57.1301 115.804 58.3972 115.685 59.6455 115.451C61.5545 115.096 63.417 114.523 65.1968 113.743C67.5195 112.724 69.7018 111.407 71.6896 109.826C74.2339 107.792 76.5009 105.43 78.4323 102.801C80.9385 99.4143 83.0342 95.7397 84.6751 91.8545C85.1685 90.7098 85.635 89.5509 86.0743 88.3778C86.1083 88.2537 86.1176 88.1241 86.1017 87.9963C86.0858 87.8686 86.0451 87.7452 85.9818 87.6334C85.9184 87.5215 85.8338 87.4232 85.7327 87.3443C85.6316 87.2653 85.516 87.2072 85.3925 87.1732C85.1439 87.1101 84.8807 87.1458 84.6576 87.2729C84.4345 87.4 84.2687 87.6086 84.1946 87.8555C82.4286 92.5793 80.1724 97.1496 77.2117 101.24C76.6111 102.069 76.0917 102.739 75.3872 103.564C74.7682 104.296 74.119 105.001 73.4394 105.68C72.8128 106.313 72.1636 106.917 71.4916 107.498C71.1669 107.782 70.8423 108.056 70.4917 108.327L70.3391 108.445L70.1898 108.559L69.6638 108.954C68.474 109.82 67.2206 110.594 65.9143 111.269C65.6156 111.422 65.3169 111.569 65.015 111.709L64.5865 111.905L64.3885 111.994L64.2749 112.042C64.1125 112.114 64.4242 111.98 64.3106 112.026C63.7544 112.257 63.1927 112.474 62.6257 112.679C61.6334 113.017 60.6206 113.291 59.5936 113.498C59.1618 113.583 58.7235 113.645 58.295 113.72C58.6197 113.668 58.3665 113.72 58.2236 113.72L57.9249 113.756L57.3796 113.805C56.8128 113.853 56.2439 113.872 55.6752 113.861C55.4999 113.861 55.3246 113.861 55.1493 113.838C54.974 113.815 54.6785 113.724 55.1136 113.838C54.8831 113.773 55.5648 114.164 55.4999 114.08L55.7499 115.033C56.2303 111.69 58.6522 109.108 61.035 106.826C63.7717 104.214 66.6869 101.802 69.1152 98.87C73.8257 93.1897 76.9877 86.2852 77.7051 78.891C78.0854 74.9178 77.7209 70.9081 76.6306 67.0701C76.3059 65.859 74.4068 66.3715 74.7541 67.5892L74.7509 67.5924Z" fill="#F5F5F5"/>
</g>
<defs>
<clipPath id="clip0_386_364">
<rect width="112" height="140" fill="white"/>
</clipPath>
</defs>
</svg>
